<svg xmlns="http://www.w3.org/2000/svg" width="400" height="200" viewBox="0 0 400 200" fill="none" stroke="#94A3B8" stroke-width="1.35" stroke-linecap="round" stroke-linejoin="round">
  <!-- Row 1: y ~ 26 -->
  <!-- 1. Mail Envelope -->
  <g transform="translate(38, 17)">
    <rect x="0" y="0" width="24" height="17" rx="3.5"/>
    <path d="M1 2.5 L12 10.5 L23 2.5"/>
  </g>

  <!-- 2. Chat Bubble with info/lines -->
  <g transform="translate(138, 16)">
    <path d="M0 17 L0 4.5 C0 2 2 0 4.5 0 L20.5 0 C23 0 25 2 25 4.5 L25 14.5 C25 17 23 19 20.5 19 L7 19 Z"/>
    <line x1="6" y1="7" x2="19" y2="7"/>
    <line x1="6" y1="12" x2="15" y2="12"/>
  </g>

  <!-- 3. Sparkle 4-pointed Star -->
  <path d="M250 14 C250 22 254 26 262 26 C254 26 250 30 250 38 C250 30 246 26 238 26 C246 26 250 22 250 14 Z"/>

  <!-- 4. Heart -->
  <path d="M350 36 C341 29 337 24 337 20 C337 16.5 340 14 343.5 14 C346.5 14 348.8 16 350 17.8 C351.2 16 353.5 14 356.5 14 C360 14 363 16.5 363 20 C363 24 359 29 350 36 Z"/>

  <!-- Row 2: y ~ 76 -->
  <!-- 5. Document (wrap at 0 and 400) -->
  <g transform="translate(-11, 66)">
    <path d="M0 0 L15 0 L22 7 L22 21 L0 21 Z"/>
    <path d="M15 0 L15 7 L22 7"/>
    <line x1="5" y1="11" x2="14" y2="11"/>
    <line x1="5" y1="16" x2="17" y2="16"/>
  </g>
  <g transform="translate(389, 66)">
    <path d="M0 0 L15 0 L22 7 L22 21 L0 21 Z"/>
    <path d="M15 0 L15 7 L22 7"/>
    <line x1="5" y1="11" x2="14" y2="11"/>
    <line x1="5" y1="16" x2="17" y2="16"/>
  </g>

  <!-- 6. Upload Tray with Up Arrow -->
  <g transform="translate(89, 66)">
    <path d="M1 14 L1 19 C1 20.5 2 21.5 3.5 21.5 L18.5 21.5 C20 21.5 21 20.5 21 19 L21 14"/>
    <line x1="11" y1="16" x2="11" y2="0"/>
    <polyline points="5 6 11 0 17 6"/>
  </g>

  <!-- 7. Price / Bookmark Tag -->
  <g transform="translate(189, 67)">
    <path d="M0 2 L13 2 L22 11 L13 20 L0 11 Z"/>
    <circle cx="5.5" cy="6.5" r="1.75" fill="#94A3B8"/>
  </g>

  <!-- 8. Bell -->
  <g transform="translate(290, 65)">
    <path d="M1.5 17.5 C1.5 17.5 0 15 0 11 C0 6.5 4 2.5 8.5 2 L8.5 0.5 C8.5 0 9 0 10 0 C11 0 11.5 0 11.5 0.5 L11.5 2 C16 2.5 20 6.5 20 11 C20 15 18.5 17.5 18.5 17.5 L1.5 17.5 Z"/>
    <path d="M7 19.5 C7.5 21 8.5 22 10 22 C11.5 22 12.5 21 13 19.5"/>
  </g>

  <!-- Row 3: y ~ 126 -->
  <!-- 9. 5-pointed Star -->
  <polygon points="50,114 53.5,122 62,123 55.5,129 57.5,138 50,133.5 42.5,138 44.5,129 38,123 46.5,122"/>

  <!-- 10. Chat speech bubble with checkmark -->
  <g transform="translate(138, 116)">
    <path d="M0 17 L0 4.5 C0 2 2 0 4.5 0 L20.5 0 C23 0 25 2 25 4.5 L25 14.5 C25 17 23 19 20.5 19 L7 19 Z"/>
    <polyline points="7 9.5 10.5 13 18 5.5"/>
  </g>

  <!-- 11. Folder -->
  <g transform="translate(238, 117)">
    <path d="M2 0 L9 0 L12 4 L22 4 C23.5 4 24.5 5 24.5 6.5 L24.5 17.5 C24.5 19 23.5 20 22 20 L2 20 C0.5 20 0 19 0 17.5 L0 2.5 C0 1 0.5 0 2 0 Z"/>
    <line x1="0" y1="7" x2="24.5" y2="7"/>
  </g>

  <!-- 12. Paper Plane / Send -->
  <g transform="translate(339, 116)">
    <path d="M1 13 L22 1 L13 21 L9 14 L1 13 Z"/>
    <line x1="9" y1="14" x2="22" y2="1"/>
  </g>

  <!-- Row 4: y ~ 176 -->
  <!-- 13. Asterisk / Starburst -->
  <g transform="translate(0, 176)">
    <line x1="-8" y1="0" x2="8" y2="0"/>
    <line x1="0" y1="-8" x2="0" y2="8"/>
    <line x1="-5.5" y1="-5.5" x2="5.5" y2="5.5"/>
    <line x1="-5.5" y1="5.5" x2="5.5" y2="-5.5"/>
  </g>
  <g transform="translate(400, 176)">
    <line x1="-8" y1="0" x2="8" y2="0"/>
    <line x1="0" y1="-8" x2="0" y2="8"/>
    <line x1="-5.5" y1="-5.5" x2="5.5" y2="5.5"/>
    <line x1="-5.5" y1="5.5" x2="5.5" y2="-5.5"/>
  </g>

  <!-- 14. Bookmark Ribbon -->
  <g transform="translate(91, 165)">
    <path d="M0 0 L18 0 L18 21 L9 16 L0 21 Z"/>
    <line x1="4" y1="5" x2="14" y2="5"/>
  </g>

  <!-- 15. Search / Magnifier -->
  <g transform="translate(190, 166)">
    <circle cx="8" cy="8" r="7.5"/>
    <line x1="13.5" y1="13.5" x2="20" y2="20"/>
  </g>

  <!-- 16. Mail with Up Arrow -->
  <g transform="translate(288, 166)">
    <rect x="0" y="5" width="24" height="16" rx="3.5"/>
    <path d="M1 7 L12 15 L23 7"/>
    <path d="M8 3 L12 0 L16 3"/>
    <line x1="12" y1="0" x2="12" y2="8"/>
  </g>
</svg>
